<?xml version="1.0" encoding="UTF-8" standalone="no"?>
<svg xmlns:svg="http://www.w3.org/2000/svg" xmlns="http://www.w3.org/2000/svg" 
height="84.173386" width="139.25743" version="1.1" viewBox="10 20 80 57">
  <path fill="#000" d="m 93.695942,36.710893 c -1.650458,-0.412615 -5.054529,-1.340997 -5.260837,0 -0.206307,1.340998 -0.618922,3.713532 -0.618922,3.713532 l -2.785149,0.206308 c 0,0 -0.30946,-0.309461 -0.618922,-1.444152 -0.309461,-1.13469 -3.300917,-11.140595 -5.673451,-14.544666 -2.372534,-3.404071 -4.022993,-2.991457 -4.022993,-2.991457 v 0.103155 c 0,0 -9.28383,-1.753613 -25.06634,-1.753613 -15.78251,0 -25.06634,1.753613 -25.06634,1.753613 v -0.103155 c 0,0 -1.547305,-0.412614 -4.022992,2.991457 -2.372534,3.404071 -5.363991,13.409976 -5.673452,14.544666 -0.309461,1.134691 -0.618922,1.444152 -0.618922,1.444152 l -2.681996,-0.206308 c 0,0 -0.30946,-2.372534 -0.618921,-3.713532 -0.206308,-1.340997 -3.6103788,-0.412615 -5.2608374,0 -1.5473051,0.309461 -2.3725343,2.888303 -2.3725343,3.404071 0,0.515769 0.4126147,0.928383 1.1346903,1.237844 0.7220756,0.309461 5.1576831,0.618922 5.8797594,0.618922 0.825229,0 0.722076,-0.206307 0.722076,-0.206307 l 2.681995,0.206307 c 0,0 -0.206307,0.928383 -0.722076,1.13469 -0.515768,0.206308 -0.618921,0.722076 -0.928383,1.13469 -0.309461,0.412615 -3.4040717,2.681996 -3.9198396,4.022994 -1.1346902,2.578841 -0.2063073,7.63337 -0.2063073,11.450056 0,3.713532 0.7220752,9.696444 1.0315369,12.172132 0.3094609,2.475687 2.372535,4.2293 2.372535,4.2293 h 9.490137 c 1.340997,0 0.700142,-2.117159 2.041139,-2.117159 h 53.304983 c 1.340998,0 1.07893,2.117159 2.419928,2.117159 h 9.490137 c 0,0 2.166227,-1.753613 2.372535,-4.2293 0.30946,-2.475688 1.031536,-8.4586 1.031536,-12.172132 0,-3.713532 0.928383,-8.768062 -0.206307,-11.450056 -0.515769,-1.237845 -3.610379,-3.507226 -3.919839,-4.022994 -0.309461,-0.412614 -0.412615,-0.928382 -0.928384,-1.13469 -0.515768,-0.206307 -0.722076,-1.13469 -0.722076,-1.13469 l 2.681996,-0.206307 c 0,0 -0.103154,0.206307 0.722075,0.206307 0.82523,0 5.157684,-0.206307 5.879759,-0.618922 0.722079,-0.412615 1.134687,-0.722075 1.134687,-1.237844 0,-0.515768 -0.825226,-3.09461 -2.475684,-3.404071 z 
     m -76.024249,2.475688 c 0.412614,-1.959919 4.332454,-14.854127 5.467144,-15.679357 0,0 12.37844,-0.928382 26.510491,-0.928382 14.132052,0 26.510491,0.928382 26.510491,0.928382 1.237845,0.82523 5.05453,13.719438 5.467145,15.679357 0.412614,1.95992 -0.206308,1.95992 -0.206308,1.95992 H 17.878 c 0,0 -0.618922,0 -0.206307,-1.95992 z 
     m 3.404071,25.582108 c -0.722076,0 -8.768062,-0.103154 -8.768062,-0.103154 0,0 1.753613,3.404071 2.063074,4.022994 0.309461,0.722075 0.309461,1.959919 -0.722076,1.650458 -0.928383,-0.309461 -1.959919,-2.372534 -2.26938,-3.507224 -0.309461,-1.237844 -0.722076,-4.2293 -0.722076,-4.2293 l 12.172132,0.928382 c 0,0.103153 -1.031537,1.237844 -1.753612,1.237844 z 
     m 1.237843,-9.696444 c -2.991455,0 -6.911295,-1.134691 -8.045985,-1.444152 -1.134691,-0.30946 -1.95992,-1.547305 -1.95992,-3.197763 0,-1.650458 0,-3.404071 1.856766,-5.260837 0,0 2.166228,0 3.919839,1.444152 1.65046,1.340998 3.09461,2.578841 4.951376,3.197764 2.785149,0.825229 4.848223,3.816684 4.848223,3.816684 0,0 -2.578842,1.444152 -5.570299,1.444152 z 
     M 71.621059,72.195753 H 27.883906 c -1.031537,0 -2.578842,-0.206308 -1.237844,-1.650459 1.031536,-1.031536 2.785149,-1.856765 6.18922,-1.856765 h 16.814046 16.814047 c 3.404071,0 5.157684,0.825229 6.18922,1.856765 1.547304,1.444151 0,1.650459 -1.031536,1.650459 z 
     m 17.22666,-9.490137 c 0,0 -0.412614,2.991456 -0.722075,4.2293 -0.309461,1.237844 -1.340998,3.197763 -2.26938,3.507224 -0.928384,0.309462 -1.031537,-1.031536 -0.722076,-1.650458 0.309461,-0.618922 2.063073,-4.022993 2.063073,-4.022993 0,0 -8.045986,0.103154 -8.768061,0.103154 -0.722076,0 -1.650459,-1.237845 -1.650459,-1.237845 z 
     M 87.094108,50.43033 c 0,1.650458 -0.722076,2.888303 -1.95992,3.197763 -1.237844,0.309461 -5.157684,1.444152 -8.045986,1.444152 -2.991456,0 -5.570298,-1.444152 -5.570298,-1.444152 0,0 1.95992,-2.991455 4.848223,-3.816684 1.856766,-0.515769 3.197763,-1.856766 4.951376,-3.197764 1.856766,-1.444152 3.919839,-1.444152 3.919839,-1.444152 1.856766,1.856766 1.856766,3.610379 1.856766,5.260837 z"/>
  <g transform="matrix(0.10257351,0,0,0.10257351,19.381258,8.0426987)">
    <g transform="matrix(0.15174969,0,0,0.15174969,269.81953,400.07266)">
      <path fill="#fff" fill-opacity="1" d="M 173.146,317.299 208.622,117.78 c 33.815,0 44.481,3.708 46.021,18.843 0,0 22.684,-8.458 34.125,-25.636 C 244.122,90.299 199.263,89.366 199.263,89.366 l -26.176,31.882 0.059,-0.004 -26.176,-31.883 c 0,0 -44.86,0.934 -89.5,21.622 11.431,17.178 34.124,25.636 34.124,25.636 1.549,-15.136 12.202,-18.844 45.79,-18.868 l 35.762,199.548" />
      <path fill="#fff" fill-opacity="1" d="m 173.132,80.157 c 36.09,-0.276 77.399,5.583 119.687,24.014 5.652,-10.173 7.105,-14.669 7.105,-14.669 C 253.697,71.213 210.406,64.954 173.127,64.797 135.85,64.954 92.561,71.214 46.34,89.502 c 0,0 2.062,5.538 7.1,14.669 42.28,-18.431 83.596,-24.29 119.687,-24.014 h 0.005" />
    </g>
  </g>
</svg>